<?xml version="1.0" standalone="no"?>
<!DOCTYPE svg PUBLIC "-//W3C//DTD SVG 20010904//EN"
 "http://www.w3.org/TR/2001/REC-SVG-20010904/DTD/svg10.dtd">
<svg version="1.0" xmlns="http://www.w3.org/2000/svg"
 width="1000.000000pt" height="1000.000000pt" viewBox="0 0 1000.000000 1000.000000"
 preserveAspectRatio="xMidYMid meet">
<metadata>
Created by potrace 1.14, written by Peter Selinger 2001-2017
</metadata>
<g transform="translate(0.000000,1000.000000) scale(0.100000,-0.100000)"
fill="#000000" stroke="none">
<path d="M4950 9973 c-61 -35 -118 -67 -171 -96 -57 -31 -137 -75 -219 -121
-36 -20 -76 -42 -90 -49 -14 -6 -31 -17 -38 -24 -8 -7 -18 -11 -23 -8 -5 4 -9
2 -9 -3 0 -5 -15 -15 -32 -23 -18 -7 -35 -15 -38 -19 -3 -3 -34 -21 -70 -39
-36 -19 -70 -38 -76 -42 -6 -5 -32 -20 -58 -34 -66 -35 -155 -84 -191 -105
-16 -9 -55 -31 -85 -47 -30 -17 -71 -39 -90 -50 -52 -29 -138 -76 -200 -109
-30 -16 -57 -31 -60 -34 -6 -6 -26 -17 -108 -60 -34 -17 -65 -36 -68 -41 -3
-5 -10 -7 -15 -4 -5 4 -9 1 -9 -4 0 -6 -4 -11 -8 -11 -5 0 -93 -47 -195 -104
-103 -58 -187 -101 -187 -98 0 4 -4 2 -8 -4 -4 -6 -23 -19 -42 -29 -19 -9 -44
-25 -54 -34 -16 -13 -18 -13 -12 -1 4 9 2 8 -7 -2 -8 -10 -18 -18 -22 -18 -6
0 -220 -117 -275 -150 -8 -5 -35 -20 -60 -34 -25 -13 -65 -36 -90 -50 -25 -14
-66 -35 -92 -48 -27 -13 -48 -26 -48 -30 0 -5 -5 -8 -10 -8 -6 0 -28 -11 -50
-25 -22 -14 -40 -22 -40 -19 0 4 -8 0 -17 -8 -10 -8 -58 -37 -108 -63 -49 -27
-93 -53 -97 -59 -4 -6 -8 -8 -8 -4 0 3 -67 -32 -150 -78 -82 -46 -154 -84
-160 -84 -5 0 -10 -4 -10 -10 0 -5 -5 -10 -10 -10 -6 0 -78 -38 -161 -85 -83
-47 -155 -85 -159 -85 -4 0 -13 -7 -20 -15 -6 -8 -15 -14 -18 -12 -7 1 -45
-19 -152 -82 -25 -14 -63 -35 -85 -46 -22 -11 -43 -24 -47 -30 -5 -7 -8 -7 -8
0 0 7 -3 7 -8 0 -4 -5 -16 -15 -27 -21 -11 -6 -56 -30 -100 -54 -44 -24 -83
-47 -86 -52 -3 -6 -9 -9 -13 -8 -4 1 -36 -15 -71 -35 l-65 -36 2 -2520 3
-2520 55 -31 c145 -80 238 -131 330 -180 36 -20 137 -75 225 -123 88 -48 196
-107 240 -130 44 -23 98 -53 120 -65 22 -13 64 -36 93 -51 103 -57 168 -92
217 -119 28 -15 84 -45 125 -67 41 -23 104 -57 140 -78 36 -20 77 -42 92 -48
16 -6 28 -15 28 -19 0 -4 5 -8 12 -8 6 0 59 -26 117 -59 174 -96 223 -123 281
-153 30 -16 69 -37 85 -47 17 -10 59 -33 95 -51 36 -19 77 -42 92 -52 14 -10
33 -18 42 -18 9 0 16 -4 16 -9 0 -5 10 -13 23 -17 12 -4 24 -9 27 -13 3 -3 30
-19 60 -35 86 -45 172 -91 210 -113 19 -11 64 -35 100 -54 36 -18 67 -36 70
-39 3 -3 37 -21 75 -40 39 -19 72 -38 73 -42 2 -5 12 -8 23 -8 10 0 19 -4 19
-10 0 -5 6 -10 14 -10 8 0 16 -3 18 -7 2 -5 28 -21 58 -36 78 -41 200 -106
307 -166 50 -28 96 -51 102 -51 6 0 11 -3 11 -8 0 -4 17 -15 38 -24 20 -10 66
-34 102 -54 36 -20 99 -54 140 -76 41 -22 93 -51 115 -63 42 -23 144 -79 230
-125 28 -15 74 -41 103 -58 28 -17 52 -29 52 -25 0 3 8 0 18 -8 9 -8 31 -22
48 -31 35 -19 33 -20 194 69 25 14 104 57 175 96 72 39 132 75 133 79 2 4 9 8
15 8 7 0 72 34 146 75 74 41 138 75 143 75 4 0 8 5 8 10 0 6 3 9 8 8 4 -1 18
4 32 12 68 39 83 47 127 70 26 14 50 27 53 30 3 3 28 16 55 30 28 14 52 27 55
30 3 3 23 15 45 26 22 12 72 38 110 59 39 21 95 52 125 68 30 16 60 33 65 37
6 4 55 31 110 60 55 29 105 56 110 60 6 4 40 23 78 44 37 20 97 52 135 72 37
21 72 40 77 44 11 8 179 98 212 114 13 6 23 14 23 19 0 4 9 7 20 7 11 0 20 5
20 11 0 5 4 8 9 5 5 -4 11 -2 13 2 1 5 44 30 93 57 50 26 121 65 158 86 38 22
73 39 77 39 5 0 10 3 12 8 2 4 32 22 68 41 36 18 83 43 105 56 159 88 213 118
238 128 15 6 27 15 27 19 0 4 6 8 14 8 7 0 25 9 39 20 14 11 32 20 41 20 9 0
16 3 16 8 0 4 15 13 33 21 17 8 34 17 37 21 3 3 23 14 45 24 22 11 42 22 45
25 3 3 43 26 90 50 47 24 88 49 92 55 4 6 8 7 8 2 0 -5 6 -4 13 1 6 6 39 25
72 43 33 18 74 41 90 50 17 9 120 65 230 125 110 60 202 112 205 115 3 3 32
18 65 35 33 16 62 32 65 35 3 3 34 20 70 39 121 64 125 67 124 90 0 11 3 21 7
21 5 0 4 11 -1 25 -6 15 -6 26 1 30 5 4 6 13 1 22 -5 8 -6 33 -2 54 4 21 4 39
-1 39 -4 0 -4 14 1 30 5 19 5 28 -1 25 -5 -4 -5 4 1 19 5 14 6 26 2 26 -4 0
-7 11 -7 25 0 14 3 25 7 25 4 0 3 11 -2 25 -6 15 -6 26 0 30 6 4 7 13 1 23 -5
9 -5 26 -1 37 4 11 4 28 -1 37 -6 10 -5 19 1 23 6 4 7 13 1 23 -6 11 -6 24 0
34 6 10 6 19 0 23 -7 4 -7 15 -1 30 6 16 6 25 -1 25 -6 0 -6 6 0 18 6 11 6 24
0 34 -6 11 -6 19 1 23 7 4 6 14 -2 28 -6 12 -11 22 -11 22 0 0 5 10 12 23 8
15 8 22 1 22 -8 0 -8 6 0 20 8 14 8 20 0 20 -8 0 -8 6 0 20 8 14 8 20 0 20 -7
0 -8 6 -1 18 5 9 10 19 12 22 1 3 -3 15 -9 27 -8 14 -9 24 -2 28 6 4 7 13 1
23 -6 11 -6 24 0 35 7 11 6 17 -1 17 -7 0 -8 6 -1 18 6 11 6 24 0 34 -6 11 -6
19 1 23 7 4 7 12 0 25 -7 13 -7 21 0 25 6 4 7 13 2 23 -9 19 -8 54 2 71 4 6 2
11 -4 11 -8 0 -8 6 0 20 8 14 8 20 0 20 -8 0 -8 6 0 20 8 14 8 20 0 20 -7 0
-8 6 -1 18 5 9 10 19 12 22 1 3 -3 15 -9 27 -8 14 -9 24 -2 28 6 4 7 13 1 23
-6 11 -6 24 0 34 6 10 6 19 0 23 -7 4 -7 15 -1 30 6 16 6 25 -1 25 -6 0 -6 6
0 18 6 11 6 24 1 32 -5 8 -5 19 0 25 5 6 5 17 1 24 -5 7 -5 28 -1 47 4 19 4
34 0 34 -5 0 -5 14 0 30 5 19 5 28 -1 25 -5 -4 -5 4 1 19 5 14 6 26 2 26 -4 0
-7 11 -7 25 0 14 3 25 7 25 4 0 3 11 -2 25 -6 15 -6 26 1 30 5 4 6 13 1 22 -5
8 -6 33 -2 54 4 21 4 39 -1 39 -4 0 -4 14 1 30 5 19 5 28 -1 25 -5 -4 -5 4 1
19 5 14 6 26 2 26 -4 0 -7 11 -7 25 0 14 3 25 7 25 4 0 3 11 -2 25 -6 15 -6
26 0 30 6 4 7 14 2 23 -9 19 -8 54 2 71 4 6 2 11 -4 11 -8 0 -8 6 0 20 8 14 8
20 0 20 -8 0 -8 6 0 20 8 14 8 20 0 20 -7 0 -8 6 -1 17 5 10 10 20 12 23 1 3
-3 15 -9 27 -8 14 -9 24 -2 28 6 4 7 13 1 23 -6 11 -6 24 0 35 7 11 6 17 -1
17 -7 0 -8 6 -1 18 6 11 6 24 0 34 -6 11 -6 19 1 23 7 4 7 12 0 25 -7 13 -7
21 0 25 6 4 7 13 2 23 -9 19 -8 54 2 71 4 6 2 11 -4 11 -8 0 -8 6 0 20 8 14 8
20 0 20 -8 0 -8 6 0 20 8 14 8 20 0 20 -8 0 -8 6 0 20 8 14 8 20 0 20 -8 0 -8
6 0 20 8 14 8 20 0 20 -8 0 -8 6 0 20 8 14 8 20 0 20 -8 0 -8 6 0 20 8 14 8
20 0 20 -7 0 -8 6 -1 18 5 9 10 19 12 22 1 3 -3 15 -9 27 -8 14 -9 24 -2 28 6
4 7 13 1 23 -6 11 -6 24 0 35 7 11 6 17 -1 17 -7 0 -8 6 -1 18 6 11 6 24 0 34
-6 11 -6 19 1 23 7 4 7 12 0 25 -7 13 -7 21 0 25 6 4 7 13 2 23 -9 19 -8 54 2
71 4 6 2 11 -4 11 -8 0 -8 6 0 20 8 14 8 20 0 20 -8 0 -8 6 0 20 8 14 8 20 0
20 -6 0 -8 5 -5 11 10 15 12 79 3 79 -3 0 -3 14 2 30 5 19 5 28 -1 25 -5 -4
-5 4 1 19 5 14 6 26 2 26 -4 0 -7 11 -7 25 0 14 3 25 7 25 4 0 3 11 -2 25 -6
15 -6 26 1 30 5 4 6 13 1 22 -5 8 -6 33 -2 54 4 21 4 39 -1 39 -4 0 -4 14 1
30 5 19 5 28 -1 25 -5 -4 -5 4 1 19 5 14 6 26 2 26 -4 0 -7 11 -7 25 0 14 3
25 7 25 4 0 3 11 -2 25 -6 15 -6 26 0 30 6 4 7 13 1 23 -5 9 -5 26 -1 37 4 11
4 28 -1 37 -6 10 -5 19 1 23 6 4 7 13 1 23 -6 11 -6 24 0 34 6 10 6 19 0 23
-7 4 -7 15 -1 30 6 16 6 25 -1 25 -6 0 -6 6 0 18 6 11 6 24 0 34 -6 11 -6 19
1 23 7 4 6 14 -2 28 -6 12 -11 22 -11 22 0 0 5 10 12 23 8 15 8 22 1 22 -8 0
-8 6 0 20 8 14 8 20 0 20 -8 0 -8 6 0 20 8 14 8 20 0 20 -7 0 -8 6 -1 18 5 9
10 19 12 22 1 3 -3 15 -9 27 -8 14 -9 24 -2 28 6 4 7 13 1 23 -6 11 -6 24 0
35 7 11 7 17 0 17 -6 0 -6 11 -1 30 5 19 5 30 -1 30 -6 0 -6 8 1 20 11 21 -2
32 -125 100 -33 18 -66 37 -72 43 -7 5 -13 6 -13 1 0 -5 -5 -2 -10 6 -5 8 -13
15 -17 15 -4 0 -28 12 -53 27 -66 38 -147 83 -215 119 -33 17 -62 34 -65 38
-3 3 -32 20 -65 37 -33 17 -92 50 -132 73 -40 22 -77 41 -83 41 -5 0 -10 4
-10 8 0 4 -12 13 -27 20 -28 11 -98 50 -203 111 -30 18 -63 35 -72 38 -10 3
-18 9 -18 14 0 5 -4 9 -9 9 -8 0 -256 135 -401 218 -81 46 -144 82 -175 98
-16 8 -52 28 -80 45 -27 16 -61 34 -75 40 -13 5 -27 13 -30 17 -3 4 -40 25
-82 47 -43 22 -78 43 -78 48 0 4 -5 7 -10 7 -6 0 -45 19 -87 43 -41 23 -98 55
-127 70 -28 16 -69 39 -91 52 -22 13 -43 22 -46 21 -3 0 -13 7 -23 17 -10 9
-22 15 -27 12 -5 -4 -9 -2 -9 2 0 5 -26 22 -57 38 -32 17 -73 40 -92 52 -18
13 -56 34 -85 48 -28 14 -58 30 -66 35 -37 25 -303 170 -311 170 -5 0 -9 5 -9
10 0 6 -4 10 -9 10 -7 0 -56 26 -217 115 -75 42 -89 50 -94 55 -3 3 -27 16
-55 29 -27 14 -68 37 -90 51 -22 14 -48 29 -57 33 -10 3 -60 30 -110 59 -51
29 -106 60 -123 68 -16 8 -32 18 -35 21 -3 3 -45 27 -95 54 -120 65 -148 80
-229 128 -65 37 -176 98 -180 97 0 -1 -21 -13 -46 -27z"/>
</g>
</svg>
